<?xml version="1.0" encoding="UTF-8" standalone="no"?>
<!-- Generator: Adobe Illustrator 19.0.0, SVG Export Plug-In . SVG Version: 6.00 Build 0)  -->

<svg
   version="1.1"
   id="Capa_1"
   x="0px"
   y="0px"
   viewBox="0 0 294.843 294.843"
   style="enable-background:new 0 0 294.843 294.843;"
   xml:space="preserve"
   sodipodi:docname="directory.svg"
   inkscape:version="1.1 (c68e22c387, 2021-05-23)"
   xmlns:inkscape="http://www.inkscape.org/namespaces/inkscape"
   xmlns:sodipodi="http://sodipodi.sourceforge.net/DTD/sodipodi-0.dtd"
   xmlns="http://www.w3.org/2000/svg"
   xmlns:svg="http://www.w3.org/2000/svg"><defs
   id="defs41" /><sodipodi:namedview
   id="namedview39"
   pagecolor="#ffffff"
   bordercolor="#666666"
   borderopacity="1.0"
   inkscape:pageshadow="2"
   inkscape:pageopacity="0.0"
   inkscape:pagecheckerboard="0"
   showgrid="false"
   inkscape:zoom="1.7975669"
   inkscape:cx="147.14334"
   inkscape:cy="147.69965"
   inkscape:window-width="1360"
   inkscape:window-height="715"
   inkscape:window-x="-8"
   inkscape:window-y="-8"
   inkscape:window-maximized="1"
   inkscape:current-layer="Capa_1" />
<g
   id="g6"
   style="fill:#ff6600">
	<path
   d="M6,40.77c3.313,0,6-2.686,6-6c0-9.256,7.53-16.786,16.786-16.786h53.675l42.243,46.147   c1.137,1.242,2.743,1.949,4.426,1.949h136.928c9.256,0,16.786,7.53,16.786,16.786c0,3.314,2.687,6,6,6s6-2.686,6-6   c0-15.873-12.913-28.786-28.786-28.786H131.771L89.529,7.933c-1.137-1.242-2.743-1.949-4.426-1.949H28.786   C12.913,5.984,0,18.897,0,34.77C0,38.083,2.687,40.77,6,40.77z"
   id="path2"
   style="fill:#ff6600" />
	<path
   d="M266.057,94.104H131.771L89.529,47.957c-1.137-1.242-2.743-1.949-4.426-1.949H28.786C12.913,46.008,0,58.921,0,74.793   v118.628c0,3.313,2.687,6,6,6s6-2.687,6-6V74.793c0-9.256,7.53-16.786,16.786-16.786h53.675l42.243,46.147   c1.137,1.242,2.743,1.949,4.426,1.949h136.928c9.256,0,16.786,7.53,16.786,16.786v137.184c0,9.255-7.53,16.786-16.786,16.786   H28.786c-9.256,0-16.786-7.53-16.786-16.786c0-3.313-2.687-6-6-6s-6,2.687-6,6c0,15.873,12.913,28.786,28.786,28.786h237.271   c15.873,0,28.786-12.913,28.786-28.786V122.89C294.843,107.017,281.93,94.104,266.057,94.104z"
   id="path4"
   style="fill:#ff6600" />
</g>
<g
   id="g8">
</g>
<g
   id="g10">
</g>
<g
   id="g12">
</g>
<g
   id="g14">
</g>
<g
   id="g16">
</g>
<g
   id="g18">
</g>
<g
   id="g20">
</g>
<g
   id="g22">
</g>
<g
   id="g24">
</g>
<g
   id="g26">
</g>
<g
   id="g28">
</g>
<g
   id="g30">
</g>
<g
   id="g32">
</g>
<g
   id="g34">
</g>
<g
   id="g36">
</g>
</svg>
