<?xml version="1.0" encoding="UTF-8" standalone="no"?>
<svg
   viewBox="0 0 48 48"
   width="48px"
   height="48px"
   version="1.1"
   id="svg8"
   sodipodi:docname="enlever.svg"
   inkscape:version="1.1 (c68e22c387, 2021-05-23)"
   xmlns:inkscape="http://www.inkscape.org/namespaces/inkscape"
   xmlns:sodipodi="http://sodipodi.sourceforge.net/DTD/sodipodi-0.dtd"
   xmlns="http://www.w3.org/2000/svg"
   xmlns:svg="http://www.w3.org/2000/svg">
  <defs
     id="defs12" />
  <sodipodi:namedview
     id="namedview10"
     pagecolor="#ffffff"
     bordercolor="#666666"
     borderopacity="1.0"
     inkscape:pageshadow="2"
     inkscape:pageopacity="0.0"
     inkscape:pagecheckerboard="0"
     showgrid="false"
     inkscape:zoom="11.041667"
     inkscape:cx="23.954717"
     inkscape:cy="24.045283"
     inkscape:window-width="1360"
     inkscape:window-height="715"
     inkscape:window-x="-8"
     inkscape:window-y="-8"
     inkscape:window-maximized="1"
     inkscape:current-layer="svg8"
     inkscape:lockguides="true" />
  <path
     fill="#ff6d00"
     d="M24,44C12.972,44,4,35.028,4,24S12.972,4,24,4s20,8.972,20,20S35.028,44,24,44z"
     id="path2"
     style="fill:#ff6600" />
  <path
     fill="#fff"
     d="M13 21H35V27H13z"
     id="path4" />
  <path
     fill="#fff"
     d="M13 21H35V27H13z"
     transform="rotate(90 24 24)"
     id="path6" />
  <rect
     style="fill:#ff6600;stroke:#ff0000;stroke-opacity:0"
     id="rect851"
     width="24"
     height="27.894341"
     x="12.950943"
     y="10.324529"
     ry="1.8566" />
  <rect
     style="fill:#ffffff;stroke:#ff0000;stroke-opacity:0"
     id="rect1725"
     width="25.177359"
     height="19.743395"
     x="11.592453"
     y="16.392452"
     ry="4.417223" />
  <rect
     style="fill:#ff6600;stroke:#ff0000;stroke-opacity:0"
     id="rect1727"
     width="0.4528302"
     height="16.120754"
     x="13.94717"
     y="18.113207"
     ry="0.2264151" />
  <rect
     style="fill:#ff6600;stroke:#ff0000;stroke-opacity:0"
     id="rect1727-3"
     width="0.4528302"
     height="16.120754"
     x="16.618868"
     y="18.113209"
     ry="0.2264151" />
  <rect
     style="fill:#ff6600;stroke:#ff0000;stroke-opacity:0"
     id="rect1727-9"
     width="0.4528302"
     height="16.120754"
     x="33.135849"
     y="18.15472"
     ry="0.2264151" />
  <rect
     style="fill:#ff6600;stroke:#ff0000;stroke-opacity:0"
     id="rect1727-2"
     width="0.4528302"
     height="16.120754"
     x="30.113207"
     y="18.113209"
     ry="0.2264151" />
  <rect
     style="fill:#ff6600;stroke:#ff0000;stroke-opacity:0"
     id="rect1727-37"
     width="0.4528302"
     height="16.120754"
     x="27"
     y="18.879244"
     ry="0.2264151" />
  <rect
     style="fill:#ff6600;stroke:#ff0000;stroke-opacity:0"
     id="rect1727-5"
     width="0.4528302"
     height="16.120754"
     x="23.864151"
     y="18.928303"
     ry="0.2264151" />
  <rect
     style="fill:#ff6600;stroke:#ff0000;stroke-opacity:0"
     id="rect1727-54"
     width="0.4528302"
     height="16.120754"
     x="20.547171"
     y="18.879244"
     ry="0.2264151" />
  <rect
     style="fill:#ffffff;stroke:#ff0000;stroke-opacity:0"
     id="rect1959"
     width="25.630188"
     height="1.8113208"
     x="11.592453"
     y="14.581131"
     ry="0.90566039" />
  <rect
     style="fill:#ffffff;stroke:#ff0000;stroke-width:0.790098;stroke-opacity:0"
     id="rect1959-3"
     width="14.338203"
     height="2.0212228"
     x="17.102596"
     y="12.664858"
     ry="1.0106114" />
</svg>
